<?xml version="1.0" encoding="utf-8"?>
<!-- Generator: Adobe Illustrator 27.7.0, SVG Export Plug-In . SVG Version: 6.00 Build 0)  -->
<svg version="1.1" id="Layer_1" xmlns="http://www.w3.org/2000/svg" xmlns:xlink="http://www.w3.org/1999/xlink" x="0px" y="0px"
	 width="95.1px" height="50px" viewBox="0 0 95.1 50" style="enable-background:new 0 0 95.1 50;" xml:space="preserve">
<style type="text/css">
	.st0{fill:#1D1E20;}
	.st1{fill:#C12929;}
	.st2{fill:#92BEFF;}
	.st3{fill:#4AFF86;}
	.st4{fill:#C909C9;}
	.st5{fill:#E8E8E8;}
	.st6{fill:#EDFF00;}
	.st7{fill:#80F6FF;}
	.st8{fill:#FF0000;}
	.st9{fill:#02AD47;}
	.st10{fill:#05A551;}
	.st11{fill:#EAEAEA;}
</style>
<g>
	<rect x="61.6" y="14" class="st0" width="2.8" height="2.8"/>
	<rect x="64.4" y="14" class="st0" width="2.8" height="2.8"/>
	<rect x="67.2" y="14" class="st0" width="2.8" height="2.8"/>
	<rect x="70" y="14" class="st0" width="2.8" height="2.8"/>
	<rect x="78.4" y="14" class="st1" width="2.8" height="2.8"/>
	<rect x="81.1" y="14" class="st1" width="2.8" height="2.8"/>
	<rect x="83.9" y="14" class="st1" width="2.8" height="2.8"/>
	<rect x="86.7" y="14" class="st1" width="2.8" height="2.8"/>
	<rect x="72.8" y="14" class="st0" width="2.8" height="2.8"/>
	<rect x="75.6" y="14" class="st1" width="2.8" height="2.8"/>
	<rect x="61.6" y="11.2" class="st0" width="2.8" height="2.8"/>
	<rect x="64.4" y="11.2" class="st1" width="2.8" height="2.8"/>
	<rect x="67.2" y="11.2" class="st1" width="2.8" height="2.8"/>
	<rect x="70" y="11.2" class="st1" width="2.8" height="2.8"/>
	<rect x="78.4" y="11.2" class="st1" width="2.8" height="2.8"/>
	<rect x="81.1" y="11.2" class="st1" width="2.8" height="2.8"/>
	<rect x="83.9" y="11.2" class="st1" width="2.8" height="2.8"/>
	<rect x="86.7" y="11.2" class="st1" width="2.8" height="2.8"/>
	<rect x="89.5" y="14" class="st1" width="2.8" height="2.8"/>
	<rect x="89.5" y="11.2" class="st1" width="2.8" height="2.8"/>
	<rect x="72.8" y="11.2" class="st1" width="2.8" height="2.8"/>
	<rect x="75.6" y="11.2" class="st0" width="2.8" height="2.8"/>
	<rect x="61.6" y="8.4" class="st0" width="2.8" height="2.8"/>
	<rect x="64.4" y="8.4" class="st1" width="2.8" height="2.8"/>
	<rect x="67.2" y="8.4" class="st2" width="2.8" height="2.8"/>
	<rect x="70" y="8.4" class="st2" width="2.8" height="2.8"/>
	<rect x="78.4" y="8.4" class="st0" width="2.8" height="2.8"/>
	<rect x="81.1" y="8.4" class="st0" width="2.8" height="2.8"/>
	<rect x="83.9" y="8.4" class="st0" width="2.8" height="2.8"/>
	<rect x="86.7" y="8.4" class="st0" width="2.8" height="2.8"/>
	<rect x="72.8" y="8.4" class="st1" width="2.8" height="2.8"/>
	<rect x="75.6" y="8.4" class="st1" width="2.8" height="2.8"/>
	<rect x="61.6" y="5.6" class="st0" width="2.8" height="2.8"/>
	<rect x="64.4" y="5.6" class="st1" width="2.8" height="2.8"/>
	<rect x="67.2" y="5.6" class="st2" width="2.8" height="2.8"/>
	<rect x="70" y="5.6" class="st2" width="2.8" height="2.8"/>
	<rect x="78.4" y="5.6" class="st1" width="2.8" height="2.8"/>
	<rect x="81.1" y="5.6" class="st1" width="2.8" height="2.8"/>
	<rect x="83.9" y="5.6" class="st1" width="2.8" height="2.8"/>
	<rect x="86.7" y="5.6" class="st1" width="2.8" height="2.8"/>
	<rect x="89.5" y="8.4" class="st1" width="2.8" height="2.8"/>
	<rect x="89.5" y="5.6" class="st0" width="2.8" height="2.8"/>
	<rect x="72.8" y="5.6" class="st1" width="2.8" height="2.8"/>
	<rect x="75.6" y="5.6" class="st1" width="2.8" height="2.8"/>
	<rect x="61.6" y="25.1" class="st0" width="2.8" height="2.8"/>
	<rect x="64.4" y="25.1" class="st1" width="2.8" height="2.8"/>
	<rect x="67.2" y="25.1" class="st3" width="2.8" height="2.8"/>
	<rect x="70" y="25.1" class="st3" width="2.8" height="2.8"/>
	<rect x="78.4" y="25.1" class="st4" width="2.8" height="2.8"/>
	<rect x="81.1" y="25.1" class="st1" width="2.8" height="2.8"/>
	<rect x="83.9" y="25.1" class="st5" width="2.8" height="2.8"/>
	<rect x="86.7" y="25.1" class="st5" width="2.8" height="2.8"/>
	<rect x="72.8" y="25.1" class="st1" width="2.8" height="2.8"/>
	<rect x="75.6" y="25.1" class="st4" width="2.8" height="2.8"/>
	<rect x="61.6" y="22.4" class="st0" width="2.8" height="2.8"/>
	<rect x="64.4" y="22.4" class="st1" width="2.8" height="2.8"/>
	<rect x="67.2" y="22.4" class="st3" width="2.8" height="2.8"/>
	<rect x="70" y="22.4" class="st3" width="2.8" height="2.8"/>
	<rect x="78.4" y="22.4" class="st4" width="2.8" height="2.8"/>
	<rect x="81.1" y="22.4" class="st1" width="2.8" height="2.8"/>
	<rect x="83.9" y="22.4" class="st5" width="2.8" height="2.8"/>
	<rect x="86.7" y="22.4" class="st5" width="2.8" height="2.8"/>
	<rect x="89.5" y="25.1" class="st1" width="2.8" height="2.8"/>
	<rect x="89.5" y="22.4" class="st1" width="2.8" height="2.8"/>
	<rect x="72.8" y="22.4" class="st1" width="2.8" height="2.8"/>
	<rect x="75.6" y="22.4" class="st4" width="2.8" height="2.8"/>
	<rect x="61.6" y="19.6" class="st0" width="2.8" height="2.8"/>
	<rect x="64.4" y="19.6" class="st1" width="2.8" height="2.8"/>
	<rect x="67.2" y="19.6" class="st3" width="2.8" height="2.8"/>
	<rect x="70" y="19.6" class="st3" width="2.8" height="2.8"/>
	<rect x="78.4" y="19.6" class="st4" width="2.8" height="2.8"/>
	<rect x="81.1" y="19.6" class="st1" width="2.8" height="2.8"/>
	<rect x="83.9" y="19.6" class="st5" width="2.8" height="2.8"/>
	<rect x="86.7" y="19.6" class="st5" width="2.8" height="2.8"/>
	<rect x="72.8" y="19.6" class="st1" width="2.8" height="2.8"/>
	<rect x="75.6" y="19.6" class="st4" width="2.8" height="2.8"/>
	<rect x="61.6" y="16.8" class="st0" width="2.8" height="2.8"/>
	<rect x="64.4" y="16.8" class="st1" width="2.8" height="2.8"/>
	<rect x="67.2" y="16.8" class="st1" width="2.8" height="2.8"/>
	<rect x="70" y="16.8" class="st1" width="2.8" height="2.8"/>
	<rect x="78.4" y="16.8" class="st1" width="2.8" height="2.8"/>
	<rect x="81.1" y="16.8" class="st1" width="2.8" height="2.8"/>
	<rect x="83.9" y="16.8" class="st1" width="2.8" height="2.8"/>
	<rect x="86.7" y="16.8" class="st1" width="2.8" height="2.8"/>
	<rect x="89.5" y="19.6" class="st1" width="2.8" height="2.8"/>
	<rect x="89.5" y="16.8" class="st1" width="2.8" height="2.8"/>
	<rect x="72.8" y="16.8" class="st1" width="2.8" height="2.8"/>
	<rect x="75.6" y="16.8" class="st1" width="2.8" height="2.8"/>
	<rect x="61.6" y="36.3" class="st0" width="2.8" height="2.8"/>
	<rect x="64.4" y="36.3" class="st1" width="2.8" height="2.8"/>
	<rect x="67.2" y="36.3" class="st6" width="2.8" height="2.8"/>
	<rect x="70" y="36.3" class="st6" width="2.8" height="2.8"/>
	<rect x="78.4" y="36.3" class="st7" width="2.8" height="2.8"/>
	<rect x="81.1" y="36.3" class="st1" width="2.8" height="2.8"/>
	<rect x="83.9" y="36.3" class="st8" width="2.8" height="2.8"/>
	<rect x="86.7" y="36.3" class="st8" width="2.8" height="2.8"/>
	<rect x="72.8" y="36.3" class="st1" width="2.8" height="2.8"/>
	<rect x="75.6" y="36.3" class="st7" width="2.8" height="2.8"/>
	<rect x="61.6" y="33.5" class="st0" width="2.8" height="2.8"/>
	<rect x="64.4" y="33.5" class="st1" width="2.8" height="2.8"/>
	<rect x="67.2" y="33.5" class="st6" width="2.8" height="2.8"/>
	<rect x="70" y="33.5" class="st6" width="2.8" height="2.8"/>
	<rect x="78.4" y="33.5" class="st7" width="2.8" height="2.8"/>
	<rect x="81.1" y="33.5" class="st1" width="2.8" height="2.8"/>
	<rect x="83.9" y="33.5" class="st8" width="2.8" height="2.8"/>
	<rect x="86.7" y="33.5" class="st8" width="2.8" height="2.8"/>
	<rect x="89.5" y="36.3" class="st1" width="2.8" height="2.8"/>
	<rect x="89.5" y="33.5" class="st1" width="2.8" height="2.8"/>
	<rect x="72.8" y="33.5" class="st1" width="2.8" height="2.8"/>
	<rect x="75.6" y="33.5" class="st7" width="2.8" height="2.8"/>
	<rect x="61.6" y="30.7" class="st0" width="2.8" height="2.8"/>
	<rect x="64.4" y="30.7" class="st1" width="2.8" height="2.8"/>
	<rect x="67.2" y="30.7" class="st6" width="2.8" height="2.8"/>
	<rect x="70" y="30.7" class="st6" width="2.8" height="2.8"/>
	<rect x="78.4" y="30.7" class="st7" width="2.8" height="2.8"/>
	<rect x="81.1" y="30.7" class="st1" width="2.8" height="2.8"/>
	<rect x="83.9" y="30.7" class="st8" width="2.8" height="2.8"/>
	<rect x="86.7" y="30.7" class="st8" width="2.8" height="2.8"/>
	<rect x="72.8" y="30.7" class="st1" width="2.8" height="2.8"/>
	<rect x="75.6" y="30.7" class="st7" width="2.8" height="2.8"/>
	<rect x="61.6" y="27.9" class="st0" width="2.8" height="2.8"/>
	<rect x="64.4" y="27.9" class="st1" width="2.8" height="2.8"/>
	<rect x="67.2" y="27.9" class="st1" width="2.8" height="2.8"/>
	<rect x="70" y="27.9" class="st1" width="2.8" height="2.8"/>
	<rect x="78.4" y="27.9" class="st1" width="2.8" height="2.8"/>
	<rect x="81.1" y="27.9" class="st1" width="2.8" height="2.8"/>
	<rect x="83.9" y="27.9" class="st1" width="2.8" height="2.8"/>
	<rect x="86.7" y="27.9" class="st1" width="2.8" height="2.8"/>
	<rect x="89.5" y="30.7" class="st1" width="2.8" height="2.8"/>
	<rect x="89.5" y="27.9" class="st1" width="2.8" height="2.8"/>
	<rect x="72.8" y="27.9" class="st1" width="2.8" height="2.8"/>
	<rect x="75.6" y="27.9" class="st1" width="2.8" height="2.8"/>
	<rect x="61.6" y="47.5" class="st0" width="2.8" height="2.8"/>
	<rect x="64.4" y="47.5" class="st0" width="2.8" height="2.8"/>
	<rect x="67.2" y="47.5" class="st0" width="2.8" height="2.8"/>
	<rect x="70" y="47.5" class="st0" width="2.8" height="2.8"/>
	<rect x="78.4" y="47.5" class="st0" width="2.8" height="2.8"/>
	<rect x="81.1" y="47.5" class="st0" width="2.8" height="2.8"/>
	<rect x="83.9" y="47.5" class="st0" width="2.8" height="2.8"/>
	<rect x="86.7" y="47.5" class="st0" width="2.8" height="2.8"/>
	<rect x="72.8" y="47.5" class="st0" width="2.8" height="2.8"/>
	<rect x="75.6" y="47.5" class="st0" width="2.8" height="2.8"/>
	<rect x="61.6" y="44.7" class="st0" width="2.8" height="2.8"/>
	<rect x="64.4" y="44.7" class="st1" width="2.8" height="2.8"/>
	<rect x="67.2" y="44.7" class="st1" width="2.8" height="2.8"/>
	<rect x="70" y="44.7" class="st1" width="2.8" height="2.8"/>
	<rect x="78.4" y="44.7" class="st1" width="2.8" height="2.8"/>
	<rect x="81.1" y="44.7" class="st1" width="2.8" height="2.8"/>
	<rect x="83.9" y="44.7" class="st1" width="2.8" height="2.8"/>
	<rect x="86.7" y="44.7" class="st1" width="2.8" height="2.8"/>
	<rect x="89.5" y="47.5" class="st0" width="2.8" height="2.8"/>
	<rect x="89.5" y="44.7" class="st1" width="2.8" height="2.8"/>
	<rect x="72.8" y="44.7" class="st1" width="2.8" height="2.8"/>
	<rect x="75.6" y="44.7" class="st1" width="2.8" height="2.8"/>
	<rect x="61.6" y="41.9" class="st0" width="2.8" height="2.8"/>
	<rect x="64.4" y="41.9" class="st1" width="2.8" height="2.8"/>
	<rect x="67.2" y="41.9" class="st0" width="2.8" height="2.8"/>
	<rect x="70" y="41.9" class="st1" width="2.8" height="2.8"/>
	<rect x="78.4" y="41.9" class="st9" width="2.8" height="2.8"/>
	<rect x="81.1" y="41.9" class="st1" width="2.8" height="2.8"/>
	<rect x="83.9" y="41.9" class="st1" width="2.8" height="2.8"/>
	<rect x="86.7" y="41.9" class="st0" width="2.8" height="2.8"/>
	<rect x="72.8" y="41.9" class="st9" width="2.8" height="2.8"/>
	<rect x="75.6" y="41.9" class="st9" width="2.8" height="2.8"/>
	<rect x="61.6" y="39.1" class="st0" width="2.8" height="2.8"/>
	<rect x="64.4" y="39.1" class="st1" width="2.8" height="2.8"/>
	<rect x="67.2" y="39.1" class="st1" width="2.8" height="2.8"/>
	<rect x="70" y="39.1" class="st1" width="2.8" height="2.8"/>
	<rect x="78.4" y="39.1" class="st1" width="2.8" height="2.8"/>
	<rect x="81.1" y="39.1" class="st1" width="2.8" height="2.8"/>
	<rect x="83.9" y="39.1" class="st1" width="2.8" height="2.8"/>
	<rect x="86.7" y="39.1" class="st1" width="2.8" height="2.8"/>
	<rect x="89.5" y="41.9" class="st1" width="2.8" height="2.8"/>
	<rect x="89.5" y="39.1" class="st1" width="2.8" height="2.8"/>
	<rect x="72.8" y="39.1" class="st1" width="2.8" height="2.8"/>
	<rect x="75.6" y="39.1" class="st1" width="2.8" height="2.8"/>
	<rect x="61.6" y="2.8" class="st0" width="2.8" height="2.8"/>
	<rect x="64.4" y="2.8" class="st1" width="2.8" height="2.8"/>
	<rect x="67.2" y="2.8" class="st1" width="2.8" height="2.8"/>
	<rect x="70" y="2.8" class="st1" width="2.8" height="2.8"/>
	<rect x="78.4" y="2.8" class="st1" width="2.8" height="2.8"/>
	<rect x="81.1" y="2.8" class="st1" width="2.8" height="2.8"/>
	<rect x="83.9" y="2.8" class="st1" width="2.8" height="2.8"/>
	<rect x="86.7" y="2.8" class="st1" width="2.8" height="2.8"/>
	<rect x="72.8" y="2.8" class="st10" width="2.8" height="2.8"/>
	<rect x="75.6" y="2.8" class="st1" width="2.8" height="2.8"/>
	<rect x="61.6" class="st0" width="2.8" height="2.8"/>
	<rect x="64.4" class="st0" width="2.8" height="2.8"/>
	<rect x="67.2" class="st0" width="2.8" height="2.8"/>
	<rect x="70" class="st0" width="2.8" height="2.8"/>
	<rect x="78.4" class="st0" width="2.8" height="2.8"/>
	<rect x="81.1" class="st0" width="2.8" height="2.8"/>
	<rect x="83.9" class="st0" width="2.8" height="2.8"/>
	<rect x="86.7" class="st0" width="2.8" height="2.8"/>
	<rect x="89.5" y="2.8" class="st1" width="2.8" height="2.8"/>
	<rect x="89.5" class="st0" width="2.8" height="2.8"/>
	<rect x="92.3" y="14" class="st0" width="2.8" height="2.8"/>
	<rect x="92.3" y="11.2" class="st0" width="2.8" height="2.8"/>
	<rect x="92.3" y="8.4" class="st0" width="2.8" height="2.8"/>
	<rect x="92.3" y="5.6" class="st0" width="2.8" height="2.8"/>
	<rect x="92.3" y="25.1" class="st0" width="2.8" height="2.8"/>
	<rect x="92.3" y="22.4" class="st0" width="2.8" height="2.8"/>
	<rect x="92.3" y="19.6" class="st0" width="2.8" height="2.8"/>
	<rect x="92.3" y="16.8" class="st0" width="2.8" height="2.8"/>
	<rect x="92.3" y="36.3" class="st0" width="2.8" height="2.8"/>
	<rect x="92.3" y="33.5" class="st0" width="2.8" height="2.8"/>
	<rect x="92.3" y="30.7" class="st0" width="2.8" height="2.8"/>
	<rect x="92.3" y="27.9" class="st0" width="2.8" height="2.8"/>
	<rect x="92.3" y="47.5" class="st0" width="2.8" height="2.8"/>
	<rect x="92.3" y="44.7" class="st0" width="2.8" height="2.8"/>
	<rect x="92.3" y="41.9" class="st0" width="2.8" height="2.8"/>
	<rect x="92.3" y="39.1" class="st0" width="2.8" height="2.8"/>
	<rect x="92.3" y="2.8" class="st0" width="2.8" height="2.8"/>
	<rect x="92.3" class="st0" width="2.8" height="2.8"/>
	<rect x="72.8" class="st0" width="2.8" height="2.8"/>
	<rect x="75.6" class="st0" width="2.8" height="2.8"/>
</g>
<rect x="40.6" y="25.1" class="st0" width="2.8" height="2.8"/>
<rect x="43.4" y="25.1" class="st0" width="2.8" height="2.8"/>
<rect x="51.7" y="25.1" class="st0" width="2.8" height="2.8"/>
<rect x="46.2" y="25.1" class="st1" width="2.8" height="2.8"/>
<rect x="49" y="25.1" class="st1" width="2.8" height="2.8"/>
<rect x="46.2" y="25.1" class="st0" width="2.8" height="2.8"/>
<rect x="49" y="25.1" class="st0" width="2.8" height="2.8"/>
<rect x="46.2" y="19.6" transform="matrix(-1.836970e-16 1 -1 -1.836970e-16 68.5172 -26.599)" class="st0" width="2.8" height="2.8"/>
<rect x="46.2" y="27.9" transform="matrix(-1.836970e-16 1 -1 -1.836970e-16 76.8928 -18.2235)" class="st0" width="2.8" height="2.8"/>
<rect x="46.2" y="30.7" transform="matrix(-1.836970e-16 1 -1 -1.836970e-16 79.6866 -15.4297)" class="st0" width="2.8" height="2.8"/>
<rect x="46.2" y="22.4" transform="matrix(-1.836970e-16 1 -1 -1.836970e-16 71.311 -23.8053)" class="st1" width="2.8" height="2.8"/>
<rect x="46.2" y="25.1" transform="matrix(-1.836970e-16 1 -1 -1.836970e-16 74.1048 -21.0115)" class="st1" width="2.8" height="2.8"/>
<rect x="46.2" y="22.4" transform="matrix(-1.836970e-16 1 -1 -1.836970e-16 71.311 -23.8053)" class="st0" width="2.8" height="2.8"/>
<rect x="46.2" y="25.1" transform="matrix(-1.836970e-16 1 -1 -1.836970e-16 74.1048 -21.0115)" class="st0" width="2.8" height="2.8"/>
<g>
	<rect y="27.9" class="st0" width="2.8" height="2.8"/>
	<rect x="2.8" y="27.9" class="st11" width="2.8" height="2.8"/>
	<rect x="5.6" y="27.9" class="st0" width="2.8" height="2.8"/>
	<rect x="8.4" y="27.9" class="st0" width="2.8" height="2.8"/>
	<rect x="0" y="22.4" class="st0" width="2.8" height="2.8"/>
	<rect x="2.8" y="22.4" class="st1" width="2.8" height="2.8"/>
	<rect x="5.6" y="22.4" class="st1" width="2.8" height="2.8"/>
	<rect x="8.4" y="22.4" class="st1" width="2.8" height="2.8"/>
	<rect x="2.8" y="19.6" class="st1" width="2.8" height="2.8"/>
	<rect x="0" y="19.6" class="st0" width="2.8" height="2.8"/>
	<rect x="5.6" y="19.6" class="st1" width="2.8" height="2.8"/>
	<rect x="8.4" y="19.6" class="st1" width="2.8" height="2.8"/>
	<rect x="11.2" y="19.6" class="st1" width="2.8" height="2.8"/>
	<rect x="22.3" y="22.4" class="st1" width="2.8" height="2.8"/>
	<rect x="25.1" y="22.4" class="st1" width="2.8" height="2.8"/>
	<rect x="27.9" y="22.4" class="st1" width="2.8" height="2.8"/>
	<rect x="30.7" y="22.4" class="st0" width="2.8" height="2.8"/>
	<rect x="19.6" y="19.6" class="st1" width="2.8" height="2.8"/>
	<rect x="22.3" y="19.6" class="st1" width="2.8" height="2.8"/>
	<rect x="25.1" y="19.6" class="st1" width="2.8" height="2.8"/>
	<rect x="27.9" y="19.6" class="st1" width="2.8" height="2.8"/>
	<rect x="30.7" y="19.6" class="st0" width="2.8" height="2.8"/>
	<rect x="14" y="25.1" class="st11" width="2.8" height="2.8"/>
	<rect x="14" y="22.4" class="st0" width="2.8" height="2.8"/>
	<rect x="11.2" y="25.1" class="st0" width="2.8" height="2.8"/>
	<rect x="16.8" y="25.1" class="st11" width="2.8" height="2.8"/>
	<rect x="19.6" y="25.1" class="st0" width="2.8" height="2.8"/>
	<rect x="16.8" y="22.4" class="st0" width="2.8" height="2.8"/>
	
		<rect x="16.8" y="27.9" transform="matrix(-1 -1.224647e-16 1.224647e-16 -1 36.3134 58.6694)" class="st11" width="2.8" height="2.8"/>
	
		<rect x="16.8" y="30.7" transform="matrix(-1 -1.224647e-16 1.224647e-16 -1 36.3162 64.2569)" class="st0" width="2.8" height="2.8"/>
	
		<rect x="19.6" y="27.9" transform="matrix(-1 -1.224647e-16 1.224647e-16 -1 41.9009 58.6694)" class="st0" width="2.8" height="2.8"/>
	
		<rect x="14" y="27.9" transform="matrix(-1 -1.224647e-16 1.224647e-16 -1 30.7316 58.6694)" class="st11" width="2.8" height="2.8"/>
	
		<rect x="11.2" y="27.9" transform="matrix(-1 -1.224647e-16 1.224647e-16 -1 25.144 58.6694)" class="st0" width="2.8" height="2.8"/>
	
		<rect x="14" y="30.7" transform="matrix(-1 -1.224647e-16 1.224647e-16 -1 30.7344 64.2569)" class="st0" width="2.8" height="2.8"/>
	<rect x="11.2" y="22.4" class="st1" width="2.8" height="2.8"/>
	<rect x="14" y="19.6" class="st1" width="2.8" height="2.8"/>
	<rect x="14" y="33.5" class="st11" width="2.8" height="2.8"/>
	<rect x="16.8" y="19.6" class="st1" width="2.8" height="2.8"/>
	<rect x="2.8" y="16.8" class="st0" width="2.8" height="2.8"/>
	<rect x="5.6" y="16.8" class="st1" width="2.8" height="2.8"/>
	<rect x="8.4" y="16.8" class="st1" width="2.8" height="2.8"/>
	<rect x="11.2" y="16.8" class="st1" width="2.8" height="2.8"/>
	<rect x="19.6" y="16.8" class="st1" width="2.8" height="2.8"/>
	<rect x="22.3" y="16.8" class="st1" width="2.8" height="2.8"/>
	<rect x="25.1" y="16.8" class="st1" width="2.8" height="2.8"/>
	<rect x="27.9" y="16.8" class="st0" width="2.8" height="2.8"/>
	<rect x="14" y="16.8" class="st1" width="2.8" height="2.8"/>
	<rect x="16.8" y="16.8" class="st1" width="2.8" height="2.8"/>
	<rect x="5.6" y="14" class="st0" width="2.8" height="2.8"/>
	<rect x="8.4" y="14" class="st1" width="2.8" height="2.8"/>
	<rect x="11.2" y="14" class="st1" width="2.8" height="2.8"/>
	<rect x="19.6" y="14" class="st1" width="2.8" height="2.8"/>
	<rect x="22.3" y="14" class="st1" width="2.8" height="2.8"/>
	<rect x="25.1" y="14" class="st0" width="2.8" height="2.8"/>
	<rect x="14" y="14" class="st1" width="2.8" height="2.8"/>
	<rect x="16.8" y="14" class="st1" width="2.8" height="2.8"/>
	<rect x="8.4" y="11.2" class="st0" width="2.8" height="2.8"/>
	<rect x="11.2" y="11.2" class="st0" width="2.8" height="2.8"/>
	<rect x="19.6" y="11.2" class="st0" width="2.8" height="2.8"/>
	<rect x="22.3" y="11.2" class="st0" width="2.8" height="2.8"/>
	<rect x="14" y="11.2" class="st1" width="2.8" height="2.8"/>
	<rect x="16.8" y="11.2" class="st1" width="2.8" height="2.8"/>
	<rect x="14" y="11.2" class="st0" width="2.8" height="2.8"/>
	<rect x="16.8" y="11.2" class="st0" width="2.8" height="2.8"/>
	<rect x="16.8" y="33.5" class="st11" width="2.8" height="2.8"/>
	<rect x="19.6" y="33.5" class="st11" width="2.8" height="2.8"/>
	<rect x="8.4" y="30.7" class="st11" width="2.8" height="2.8"/>
	<rect x="11.2" y="30.7" class="st11" width="2.8" height="2.8"/>
	<rect x="11.2" y="30.7" class="st11" width="2.8" height="2.8"/>
	<rect x="2.8" y="30.7" class="st0" width="2.8" height="2.8"/>
	<rect x="5.6" y="30.7" class="st11" width="2.8" height="2.8"/>
	<rect x="5.6" y="30.7" class="st11" width="2.8" height="2.8"/>
	<rect x="27.9" y="30.7" class="st0" width="2.8" height="2.8"/>
	<rect x="22.3" y="30.7" class="st11" width="2.8" height="2.8"/>
	<rect x="25.1" y="30.7" class="st11" width="2.8" height="2.8"/>
	<rect x="25.1" y="30.7" class="st11" width="2.8" height="2.8"/>
	<rect x="22.3" y="33.5" class="st11" width="2.8" height="2.8"/>
	<rect x="25.1" y="33.5" class="st11" width="2.8" height="2.8"/>
	<rect x="25.1" y="33.5" class="st0" width="2.8" height="2.8"/>
	<rect x="8.4" y="33.5" class="st11" width="2.8" height="2.8"/>
	<rect x="11.2" y="33.5" class="st11" width="2.8" height="2.8"/>
	<rect x="11.2" y="33.5" class="st11" width="2.8" height="2.8"/>
	<rect x="5.6" y="33.5" class="st11" width="2.8" height="2.8"/>
	<rect x="5.6" y="33.5" class="st0" width="2.8" height="2.8"/>
	<rect x="14" y="36.3" class="st11" width="2.8" height="2.8"/>
	<rect x="16.8" y="36.3" class="st11" width="2.8" height="2.8"/>
	<rect x="19.6" y="36.3" class="st0" width="2.8" height="2.8"/>
	<rect x="22.3" y="36.3" class="st0" width="2.8" height="2.8"/>
	<rect x="8.4" y="36.3" class="st0" width="2.8" height="2.8"/>
	<rect x="11.2" y="36.3" class="st11" width="2.8" height="2.8"/>
	<rect x="11.2" y="36.3" class="st0" width="2.8" height="2.8"/>
	<rect x="14" y="36.3" class="st0" width="2.8" height="2.8"/>
	<rect x="16.8" y="36.3" class="st0" width="2.8" height="2.8"/>
	
		<rect x="30.7" y="27.9" transform="matrix(-1 -1.224647e-16 1.224647e-16 -1 64.2454 58.6694)" class="st0" width="2.8" height="2.8"/>
	
		<rect x="27.9" y="27.9" transform="matrix(-1 -1.224647e-16 1.224647e-16 -1 58.6463 58.6694)" class="st11" width="2.8" height="2.8"/>
	
		<rect x="25.1" y="27.9" transform="matrix(-1 -1.224647e-16 1.224647e-16 -1 53.0588 58.6694)" class="st0" width="2.8" height="2.8"/>
	
		<rect x="22.3" y="27.9" transform="matrix(-1 -1.224647e-16 1.224647e-16 -1 47.4712 58.6694)" class="st0" width="2.8" height="2.8"/>
	<rect y="25.1" class="st0" width="2.8" height="2.8"/>
	<rect x="2.8" y="25.1" class="st0" width="2.8" height="2.8"/>
	<rect x="5.6" y="25.1" class="st1" width="2.8" height="2.8"/>
	<rect x="8.4" y="25.1" class="st1" width="2.8" height="2.8"/>
	
		<rect x="30.7" y="25.1" transform="matrix(-1 -1.224647e-16 1.224647e-16 -1 64.2397 53.0818)" class="st0" width="2.8" height="2.8"/>
	
		<rect x="27.9" y="25.1" transform="matrix(-1 -1.224647e-16 1.224647e-16 -1 58.6521 53.0818)" class="st0" width="2.8" height="2.8"/>
	
		<rect x="25.1" y="25.1" transform="matrix(-1 -1.224647e-16 1.224647e-16 -1 53.0703 53.0818)" class="st1" width="2.8" height="2.8"/>
	
		<rect x="22.3" y="25.1" transform="matrix(-1 -1.224647e-16 1.224647e-16 -1 47.477 53.0818)" class="st1" width="2.8" height="2.8"/>
	
		<rect x="19.6" y="30.7" transform="matrix(-1 -1.224647e-16 1.224647e-16 -1 41.8952 64.2569)" class="st11" width="2.8" height="2.8"/>
	
		<rect x="19.6" y="22.4" transform="matrix(-1 -1.224647e-16 1.224647e-16 -1 41.9009 47.4942)" class="st1" width="2.8" height="2.8"/>
</g>
</svg>
